<svg width="24" height="24" viewBox="0 0 24 24" fill="none" xmlns="http://www.w3.org/2000/svg">
<path d="M6.2341 2.38892C6.72964 2.40858 7.3347 2.47582 8.07124 2.55766L9.17177 2.67994C9.42373 2.70789 9.61105 2.72867 9.78005 2.76227C11.5265 3.10951 12.8331 4.56936 12.9854 6.34345C13.0001 6.51512 13.0001 6.70358 13 6.95708V7.40037C13 7.96042 13 8.24045 12.891 8.45436C12.7951 8.64252 12.6422 8.7955 12.454 8.89137C12.2401 9.00037 11.9601 9.00037 11.4 9.00037H9C7.34315 9.00037 6 10.3435 6 12.0004C6 13.6572 7.34315 15.0004 9 15.0004H11.4C11.9601 15.0004 12.2401 15.0004 12.454 15.1094C12.6422 15.2052 12.7951 15.3582 12.891 15.5464C13 15.7603 13 16.0403 13 16.6004V17.0436C13.0001 17.2971 13.0001 17.4856 12.9854 17.6572C12.8331 19.4313 11.5265 20.8912 9.78005 21.2384C9.61107 21.272 9.42373 21.2928 9.17184 21.3207L8.10931 21.4388L8.10734 21.439L8.07114 21.443C7.33464 21.5249 6.72961 21.5921 6.23408 21.6118C5.72274 21.6321 5.24546 21.6069 4.78089 21.4582C3.69725 21.1115 2.81256 20.3196 2.34824 19.2809C2.14918 18.8356 2.07147 18.364 2.03517 17.8536C1.99998 17.3589 1.99999 16.7501 2 16.009V7.99167C1.99999 7.25062 1.99998 6.64182 2.03517 6.14714C2.07147 5.63668 2.14918 5.1651 2.34824 4.71977C2.81256 3.68105 3.69725 2.88922 4.78089 2.54245C5.24547 2.39378 5.72275 2.36863 6.2341 2.38892Z" fill="#191C30" fill-opacity="0.9"/>
<path d="M15.2929 6.29326C15.6834 5.90274 16.3166 5.90274 16.7071 6.29326L21.7071 11.2933C22.0976 11.6838 22.0976 12.3169 21.7071 12.7075L16.7071 17.7075C16.3166 18.098 15.6834 18.098 15.2929 17.7075C14.9024 17.3169 14.9024 16.6838 15.2929 16.2933L18.5858 13.0004H9C8.44772 13.0004 8 12.5527 8 12.0004C8 11.4481 8.44772 11.0004 9 11.0004H18.5858L15.2929 7.70747C14.9024 7.31695 14.9024 6.68378 15.2929 6.29326Z" fill="#191C30" fill-opacity="0.9"/>
</svg>
