<svg xmlns="http://www.w3.org/2000/svg" width="203" height="64" viewBox="0 0 203 64" fill="none">
    <path d="M24.9225 7C25.1169 7 25.2745 7.15333 25.2745 7.34247V8.0274H25.9785C26.1729 8.0274 26.3304 8.18073 26.3304 8.36986C26.3304 8.559 26.1729 8.71233 25.9785 8.71233H25.2745V9.39726C25.2745 9.5864 25.1169 9.73973 24.9225 9.73973C24.7281 9.73973 24.5705 9.5864 24.5705 9.39726V8.71233H23.8665C23.6721 8.71233 23.5145 8.559 23.5145 8.36986C23.5145 8.18073 23.6721 8.0274 23.8665 8.0274H24.5705V7.34247C24.5705 7.15333 24.7281 7 24.9225 7Z" fill="#1D2433"/>
    <path d="M38.4692 21.8913L38.7403 21.0883C38.5553 21.0393 38.3653 21.0008 38.1702 20.9725C37.5124 20.8764 36.8794 20.8139 36.2714 20.7851C36.0304 20.7744 35.7949 20.7548 35.5587 20.7351C35.3185 20.7151 35.0772 20.6951 34.8285 20.6842C33.6748 20.6314 32.5471 20.3362 31.5242 19.819C30.6943 19.384 30.0439 18.764 29.5732 17.9589H27.0762C26.8676 18.3794 26.6389 18.7708 26.3951 19.14C26.8264 19.4193 27.1239 19.8789 27.1738 20.4082C27.2937 20.4452 27.4138 20.4912 27.5328 20.5474C27.8252 20.5358 28.1579 20.561 28.5073 20.6655C29.1798 20.8668 29.6985 21.2949 30.0705 21.8375C30.3314 22.2184 30.4895 22.6435 30.5201 23.0854C32.5073 23.024 33.9751 22.6971 35.3121 22.3992C36.3818 22.161 37.3679 21.9414 38.4692 21.8913Z" fill="#0B9141"/>
    <path d="M25.4625 18.4405C25.288 18.3841 25.1013 18.3535 24.9073 18.3535C24.2898 18.3535 23.7466 18.6629 23.4325 19.131C22.9962 19.4078 22.6939 19.8677 22.6408 20.3987C22.5109 20.4371 22.3806 20.4859 22.2515 20.5468C22.026 20.539 21.7783 20.5536 21.5184 20.6089C20.756 20.7715 20.1563 21.2236 19.7353 21.8422C19.5191 22.16 19.3744 22.508 19.315 22.8704C18.7101 23.0172 18.1085 23.0958 17.5307 23.0958C15.8657 23.0958 14.3038 22.6514 13.2289 22.3455C12.9404 22.2634 12.6869 22.1914 12.476 22.1405C12.147 22.0588 11.7608 21.9866 11.3173 21.9242C11.2896 21.9207 11.262 21.9175 11.2344 21.9146L10.9509 21.0749C11.33 20.9814 11.7611 20.916 12.2443 20.8788C13.0766 20.8066 13.9189 20.7418 14.7711 20.6841C15.7031 20.6168 16.5578 20.4486 17.3354 20.1794C17.8437 20.0064 18.3844 19.7036 18.9576 19.271C19.4458 18.8992 19.7742 18.4207 20.0988 17.9275L20.1324 17.9588H25.7109C25.6355 18.1216 25.5525 18.2822 25.4625 18.4405Z" fill="#BA2532"/>
    <path d="M35.5925 52.3884L35.1272 51.8106C36.3785 51.4438 37.3335 51.084 38.0558 50.7099C39.0376 50.2014 39.5602 49.6819 39.8253 49.1108C40.0933 48.5334 40.124 47.8495 40.0059 46.9571C39.9229 46.3288 39.7718 45.6304 39.597 44.822L39.5966 44.8199C39.5212 44.4718 39.4415 44.1032 39.3609 43.711C38.8121 41.0412 40.624 39.1716 41.6315 38.559C41.7963 38.4587 42.0135 38.5075 42.1165 38.6679C42.2195 38.8282 42.1694 39.0395 42.0046 39.1398C41.1348 39.6687 39.5818 41.2929 40.0512 43.5767C40.1276 43.9481 40.2048 44.3053 40.2789 44.648C40.4571 45.4718 40.6173 46.2124 40.7041 46.8697C40.8282 47.8073 40.8148 48.643 40.4668 49.3927C40.1159 50.1486 39.4506 50.7636 38.3865 51.3145C37.6649 51.6883 36.7466 52.0395 35.5925 52.3884Z" fill="#1D2433"/>
    <path d="M31.8741 53.3237L31.4031 52.7388C30.3146 53.0334 29.1406 53.4088 28.0833 53.8516C27.1534 54.241 26.2943 54.6904 25.6617 55.1953C25.3709 55.4274 25.114 55.6827 24.9226 55.9605C24.7311 55.6827 24.4742 55.4274 24.1833 55.1953C23.5508 54.6904 22.6916 54.241 21.7618 53.8516C20.6657 53.3926 19.4443 53.006 18.3227 52.7068L17.851 53.2926C19.0226 53.5942 20.3291 53.9973 21.4835 54.4807C22.3869 54.859 23.1777 55.2786 23.7368 55.7248C23.8619 55.8246 23.9723 55.9066 24.0684 55.9781C24.4091 56.2312 24.5706 56.3512 24.5706 56.6575C24.5706 56.8466 24.7281 57 24.9226 57C25.1169 57 25.2745 56.8466 25.2745 56.6575C25.2745 56.3512 25.436 56.2312 25.7767 55.9781C25.8728 55.9066 25.9832 55.8246 26.1083 55.7248C26.6674 55.2786 27.4581 54.859 28.3616 54.4807C29.4768 54.0137 30.7338 53.6217 31.8741 53.3237Z" fill="#1D2433"/>
    <path d="M11.4585 51.3145C12.1557 51.6756 13.0364 52.0157 14.1361 52.3529L14.6007 51.776C13.4067 51.4212 12.4888 51.0722 11.7893 50.7099C10.8074 50.2014 10.2849 49.6819 10.0198 49.1108C9.75182 48.5334 9.72112 47.8495 9.83911 46.9571C9.92214 46.329 10.0731 45.6311 10.2478 44.8232L10.2485 44.8201C10.3238 44.4719 10.4035 44.1033 10.4842 43.711C11.033 41.0412 9.22109 39.1716 8.21362 38.559C8.04875 38.4587 7.83158 38.5075 7.72858 38.6679C7.62552 38.8282 7.67564 39.0395 7.84052 39.1398C8.71028 39.6687 10.2633 41.2929 9.79385 43.5767C9.71746 43.9482 9.64024 44.3053 9.56611 44.6479L9.56503 44.6529C9.38735 45.4748 9.2276 46.2137 9.14091 46.8697C9.01693 47.8073 9.03024 48.643 9.37822 49.3927C9.72908 50.1486 10.3945 50.7636 11.4585 51.3145Z" fill="#1D2433"/>
    <path d="M8.95997 24.8693L8.52343 24.3272L7.38528 23.5912C6.97781 24.0842 6.59895 24.6461 6.24866 25.277C5.50855 26.6108 4.98525 28.0239 4.61145 29.4947C4.49184 29.9898 4.36475 30.4729 4.23018 30.9439C4.05823 31.5279 3.83396 32.083 3.57978 32.6382C3.43372 32.9636 3.28982 33.2682 3.13629 33.5567C2.38824 34.7137 1.58042 35.4876 0.974237 36.0683L0.973159 36.0694C0.891035 36.148 0.812288 36.2235 0.73823 36.2955C0.583062 36.4465 0.440917 36.59 0.326368 36.7252C0.214032 36.8578 0.110589 37.0026 0.0518253 37.1578C-0.0109232 37.3234 -0.0254427 37.5102 0.0576592 37.6971C0.13524 37.8715 0.279184 38.0027 0.439743 38.1069C0.837702 38.365 1.41021 38.4447 1.94741 38.4667C2.47764 38.4884 3.04801 38.4548 3.52563 38.4268L3.52638 38.4267L3.58615 38.4232C3.70951 38.416 3.82544 38.4093 3.93297 38.4041C3.68542 38.9218 3.35592 39.3816 3.02054 39.8496L3.02009 39.8502C2.91489 39.997 2.8091 40.1446 2.7051 40.295C2.37118 40.7949 2.19176 41.2996 2.16684 41.8091C2.1469 42.2369 2.2416 42.5878 2.45092 42.8617C2.48171 42.9015 2.51346 42.9388 2.54611 42.974C2.59585 43.0321 2.6531 43.084 2.71616 43.1306C2.89849 43.2733 3.10177 43.3599 3.31703 43.4036C3.85464 43.5483 4.58587 43.5499 5.50486 43.33C5.42883 43.823 5.43007 44.2965 5.50856 44.7507C5.70293 45.8538 6.38169 46.4593 7.42834 46.8991C7.49311 46.9231 7.55787 46.9279 7.62271 46.9135C7.64326 46.9096 7.66227 46.9002 7.67762 46.8865C7.6929 46.8727 7.70395 46.855 7.70937 46.8355C7.71486 46.816 7.71451 46.7954 7.70845 46.776C7.70233 46.7567 7.69078 46.7394 7.67501 46.726C7.09641 46.2118 7.14935 45.1716 7.63144 44.5486C7.91859 44.1936 8.14562 43.797 8.30423 43.3735C8.41391 43.0707 8.43883 42.8183 8.37899 42.6165C8.22947 42.1118 8.09522 42.0542 7.60926 42.083C7.17068 42.1071 6.81683 42.172 6.5477 42.2777L6.52415 42.2867C6.51213 42.2899 6.50018 42.2938 6.48833 42.2985C4.76549 42.969 3.72356 42.8798 3.25647 42.6526C3.16902 42.6101 3.10527 42.5567 3.06031 42.4913C3.05566 42.4775 3.05371 42.4621 3.05437 42.443C3.05773 42.3448 3.12969 42.1688 3.34904 41.8895C3.43914 41.7747 3.54437 41.654 3.66272 41.5267C3.97251 41.3078 4.27131 41.0823 4.55912 40.8502C5.15505 40.4214 5.64098 39.8664 5.97953 39.228C6.0702 38.9808 6.09588 38.7157 6.05429 38.4565C6.01691 38.0239 5.41137 37.7428 5.02263 37.6923C4.63388 37.6442 4.37721 37.6202 4.25261 37.6202C3.69441 37.6394 3.17609 37.6827 2.69763 37.7499C2.56616 37.7695 2.44605 37.7817 2.33518 37.7887C2.2141 37.7891 2.09426 37.7871 1.97699 37.7823C1.46049 37.7612 1.06695 37.6845 0.841658 37.5442C0.855006 37.5294 0.872978 37.5111 0.897075 37.4893C1.09963 37.3056 1.49549 37.0802 2.0348 36.796C2.14408 36.7384 2.25827 36.679 2.37623 36.6175L2.39185 36.6094C2.99188 36.2969 3.68729 35.9348 4.32537 35.5202C4.70343 35.3416 5.0472 35.1131 5.32913 34.8228C5.38861 34.7617 5.43779 34.6938 5.47785 34.6208C5.52933 34.5627 5.5575 34.4918 5.56233 34.4197C5.70784 33.9508 5.58099 33.3536 5.41137 32.9338C5.26185 32.583 5.10237 32.2224 4.93291 31.8523C4.68621 31.3116 5.13477 31.1025 5.58332 31.3477C5.99698 31.5736 6.41313 31.7947 6.83178 32.011C7.30275 32.2488 8.09522 32.4363 8.54372 32.0903C9.22736 31.4904 9.64277 30.6581 9.70254 29.7687C9.76231 28.9372 9.69754 28.0816 9.50817 27.202C9.32544 26.4002 9.14271 25.6226 8.95997 24.8693Z" fill="#BA2532"/>
    <path d="M41.1691 24.3366L41.1504 24.3598C41.1319 24.4703 41.1118 24.5718 41.0899 24.6642C40.8905 25.4812 40.6912 26.3272 40.4919 27.202C40.3024 28.0816 40.2377 28.9372 40.2975 29.7687C40.3572 30.6581 40.7726 31.4904 41.4562 32.0903C41.9048 32.4363 42.6972 32.2488 43.1682 32.011C43.5868 31.7947 44.003 31.5736 44.4167 31.3477C44.8653 31.1025 45.3138 31.3116 45.0671 31.8523C44.8976 32.2224 44.7381 32.583 44.5886 32.9338C44.419 33.3536 44.2922 33.9508 44.4377 34.4197C44.4425 34.4918 44.4707 34.5627 44.5221 34.6208C44.5622 34.6938 44.6114 34.7617 44.6709 34.8228C44.9528 35.1131 45.2966 35.3416 45.6746 35.5202C46.3121 35.9344 47.007 36.2964 47.6067 36.6087L47.6082 36.6095C47.7317 36.6737 47.8511 36.7359 47.9652 36.796C48.5045 37.0802 48.9004 37.3056 49.1029 37.4893C49.127 37.5111 49.145 37.5294 49.1583 37.5442C48.9331 37.6845 48.5395 37.7612 48.023 37.7823C47.9057 37.7871 47.7859 37.7891 47.6648 37.7887C47.554 37.7817 47.4339 37.7695 47.3024 37.7499C46.8239 37.6827 46.3056 37.6394 45.7474 37.6202C45.6228 37.6202 45.3661 37.6442 44.9773 37.6923C44.5886 37.7428 43.9831 38.0239 43.9457 38.4565C43.9041 38.7157 43.9298 38.9808 44.0205 39.228C44.359 39.8664 44.8449 40.4214 45.4409 40.8502C45.7287 41.0823 46.0275 41.3078 46.3373 41.5267C46.4556 41.654 46.5609 41.7747 46.651 41.8895C46.8703 42.1688 46.9423 42.3448 46.9457 42.443C46.9463 42.4621 46.9443 42.4775 46.9397 42.4913C46.8947 42.5567 46.831 42.6101 46.7435 42.6526C46.2765 42.8798 45.2345 42.969 43.5117 42.2985C43.5023 42.2948 43.4928 42.2916 43.4833 42.2888L43.4758 42.2867L43.4523 42.2777C43.1832 42.172 42.8293 42.1071 42.3907 42.083C41.9048 42.0542 41.7705 42.1118 41.621 42.6165C41.5612 42.8183 41.5861 43.0707 41.6957 43.3735C41.8544 43.797 42.0814 44.1936 42.3686 44.5486C42.8506 45.1716 42.9036 46.2118 42.325 46.726C42.3092 46.7394 42.2976 46.7567 42.2916 46.776C42.2855 46.7954 42.2852 46.816 42.2906 46.8355C42.296 46.855 42.3071 46.8727 42.3224 46.8865C42.3377 46.9002 42.3567 46.9096 42.3773 46.9135C42.4421 46.9279 42.5069 46.9231 42.5717 46.8991C43.6183 46.4593 44.2971 45.8538 44.4914 44.7507C44.5699 44.2965 44.5711 43.823 44.4951 43.33C45.4141 43.5499 46.1454 43.5483 46.6829 43.4036C46.8982 43.3599 47.1015 43.2733 47.2839 43.1306C47.3469 43.084 47.4041 43.0321 47.4539 42.974C47.4865 42.9389 47.5183 42.9015 47.549 42.8617C47.7584 42.5878 47.8531 42.2369 47.8332 41.8091C47.8082 41.2996 47.6288 40.7949 47.2949 40.295C47.1909 40.1445 47.0851 39.9969 46.9799 39.8502L46.9791 39.849C46.6438 39.3812 46.3144 38.9215 46.067 38.4041C46.1746 38.4093 46.2905 38.416 46.4139 38.4232L46.4738 38.4268C46.9514 38.4548 47.5222 38.4884 48.0526 38.4667C48.5898 38.4447 49.1623 38.365 49.5602 38.1069C49.7208 38.0027 49.8648 37.8715 49.9424 37.6971C50.0254 37.5102 50.0109 37.3234 49.9482 37.1578C49.8894 37.0026 49.7859 36.8578 49.6736 36.7252C49.5591 36.59 49.4169 36.4465 49.2618 36.2955C49.1874 36.2232 49.1083 36.1474 49.0258 36.0684C48.4196 35.4876 47.6118 34.7137 46.8637 33.5567C46.7102 33.2682 46.5663 32.9636 46.4202 32.6382C46.166 32.083 45.9418 31.5279 45.7698 30.9439C45.6353 30.4729 45.5081 29.9898 45.3885 29.4947C45.0147 28.0239 44.4915 26.6108 43.7514 25.277C43.3716 24.5932 42.9583 23.9903 42.5115 23.4685L41.1691 24.3366Z" fill="#0B9141"/>
    <path d="M32.4968 48.5441L32.368 48.3842C32.1036 47.4468 32.3953 46.7206 33.2432 46.2057C33.3035 46.169 33.3445 46.1861 33.3662 46.2571C33.4236 46.4455 33.4592 46.6459 33.473 46.8583C33.5238 47.6564 33.1159 48.1372 32.5059 48.5392C32.503 48.5411 32.5 48.5428 32.4968 48.5441Z" fill="#1D2433"/>
    <path d="M32.5828 48.6509L32.6566 48.7425L32.6598 48.7437L32.6647 48.7454L32.6721 48.7477C33.6413 49.0367 34.41 48.7939 34.9781 48.0195C35.0482 47.9237 35.0225 47.8589 34.901 47.8251C33.9146 47.5485 33.1506 47.8042 32.6092 48.5919C32.5945 48.6135 32.5856 48.6332 32.5828 48.6509Z" fill="#1D2433"/>
    <path d="M31.4282 14.5449C31.7452 14.2197 32.0377 13.8562 32.1721 13.4425C32.3265 12.9669 32.2595 12.4672 31.9029 11.9468C31.4091 11.2262 30.8115 10.9077 30.1532 10.8463C30.0133 10.8332 29.8721 10.832 29.7308 10.8401C29.0251 9.9426 27.979 9.8078 27.0443 9.99375C26.8113 10.0401 26.5807 10.1068 26.3579 10.1886C26.5725 10.3385 26.7613 10.5212 26.9166 10.7291C27.0056 10.7043 27.0954 10.6827 27.1853 10.6648C27.825 10.5375 28.43 10.602 28.8959 10.9763C28.6903 11.0272 28.4882 11.0869 28.2925 11.1468C28.2119 11.1715 28.1321 11.1963 28.0534 11.2208L28.0427 11.2241C27.7809 11.3056 27.5286 11.3841 27.2827 11.4476C27.3492 11.6634 27.3853 11.8921 27.3861 12.1288C27.6873 12.0546 27.9845 11.9619 28.2663 11.8739C28.3467 11.8488 28.4261 11.824 28.5039 11.8002C28.818 11.7039 29.1101 11.6219 29.3838 11.5719C29.4974 11.7713 29.5535 11.942 29.5724 12.0893C29.5983 12.292 29.5572 12.4765 29.4569 12.6639C29.3853 12.7977 29.2835 12.9329 29.1529 13.0743C29.3775 13.1531 29.5841 13.2797 29.7536 13.4461C29.8807 13.2995 29.9932 13.1449 30.0814 12.9802C30.2381 12.6873 30.317 12.3638 30.2709 12.0046C30.2511 11.8496 30.2087 11.6931 30.1439 11.5344C30.5538 11.5865 30.9484 11.7886 31.3172 12.3268C31.5679 12.6926 31.5845 12.9784 31.5008 13.2361C31.4143 13.5024 31.2093 13.7745 30.9116 14.0794C31.1169 14.1955 31.2928 14.3564 31.4282 14.5449Z" fill="#1D2433"/>
    <path d="M28.8024 15.5652C28.7994 15.556 28.7973 15.5463 28.796 15.5363C28.795 15.5291 28.7946 15.5216 28.7946 15.5141V14.5249C28.7946 14.5096 28.7926 14.4951 28.7891 14.4814C28.7716 14.4144 28.7146 14.3683 28.6502 14.3564C28.6449 14.3554 28.6394 14.3547 28.634 14.3542C28.5867 14.3498 28.5369 14.3639 28.4966 14.4014L27.2719 15.5454C27.175 15.6359 27.0164 15.5911 26.9809 15.4695C26.9793 15.4638 26.9779 15.458 26.9767 15.452L26.7404 14.1643L26.7392 14.1583L26.7386 14.1554L26.737 14.1494L26.7363 14.1468C26.7007 14.0252 26.5422 13.9804 26.4453 14.0709L25.0445 15.3792C24.9765 15.4429 24.8689 15.4429 24.8007 15.3792L23.3482 14.0225C23.2589 13.9391 23.1114 13.969 23.0638 14.0801L22.5486 15.2832C22.5036 15.3883 22.3676 15.4222 22.2762 15.351L20.9847 14.3458C20.9395 14.3106 20.8857 14.3015 20.8371 14.3121C20.8234 14.3151 20.8101 14.3197 20.7976 14.3256C20.741 14.3525 20.6988 14.4081 20.6988 14.4795V15.4949C20.6988 15.5661 20.6557 15.6234 20.5971 15.6501L20.5957 15.6507C20.5572 15.6679 20.5121 15.6719 20.4682 15.6577C20.4611 15.6556 20.4536 15.6525 20.4466 15.6493L19.93 15.408C19.8262 15.3596 19.7286 15.4142 19.6918 15.4949C19.6646 15.5547 19.6706 15.6286 19.7319 15.6859L20.6988 16.589H29.1465L30.2542 15.5544C30.3553 15.4599 30.3058 15.3172 30.2025 15.2725C30.194 15.2688 30.1851 15.2658 30.176 15.2635C30.1428 15.2553 30.1056 15.2568 30.0669 15.2719L29.0359 15.6732C29.0061 15.6847 28.9756 15.6878 28.9468 15.684C28.9385 15.6829 28.9304 15.6812 28.9225 15.679C28.8666 15.6634 28.8202 15.6213 28.8024 15.5652Z" fill="#1D2433"/>
    <path d="M25.0463 13.1574C25.5712 13.0977 25.9785 12.6636 25.9785 12.137C25.9785 11.5696 25.5057 11.1096 24.9225 11.1096C24.651 11.1096 24.4035 11.2092 24.2165 11.373C24.1751 11.4091 24.1368 11.4485 24.1018 11.4905C23.9547 11.6671 23.8665 11.892 23.8665 12.137C23.8665 12.1748 23.8686 12.2121 23.8727 12.2489C23.93 12.7636 24.3782 13.1643 24.9225 13.1644L24.9233 13.1643C24.9646 13.1643 25.0055 13.162 25.0455 13.1574L25.0463 13.1574Z" fill="#1D2433"/>
    <path d="M20.5382 12.9726C20.3664 12.7682 20.2602 12.5778 20.2197 12.3862C20.1747 12.1731 20.2026 11.9129 20.397 11.5718C20.6707 11.6219 20.9629 11.7039 21.277 11.8001C21.3549 11.824 21.4341 11.8487 21.5146 11.8739C21.8164 11.9681 22.1352 12.0677 22.4585 12.1442C22.4585 11.9137 22.4908 11.6839 22.5574 11.4626C22.2929 11.3967 22.0212 11.3122 21.7384 11.2242L21.7351 11.2232C21.654 11.1979 21.5715 11.1723 21.4884 11.1468C21.2928 11.0869 21.0906 11.0272 20.885 10.9763C21.3509 10.602 21.9559 10.5375 22.5955 10.6648C22.7033 10.6862 22.8107 10.713 22.9168 10.7442C23.069 10.5372 23.2541 10.3547 23.4647 10.2041C23.229 10.1153 22.9842 10.043 22.7366 9.99375C21.8019 9.80781 20.7558 9.94259 20.05 10.8401C19.9087 10.832 19.7677 10.8332 19.6276 10.8463C18.9694 10.9077 18.3718 11.2262 17.878 11.9468C17.5214 12.4672 17.4544 12.9669 17.6088 13.4425C17.7725 13.9465 18.1502 14.3533 18.528 14.7192C18.6578 14.5269 18.8287 14.3608 19.0288 14.2377C18.7321 13.951 18.4089 13.6327 18.2801 13.2361C18.1964 12.9784 18.213 12.6926 18.4637 12.3268C18.8326 11.7885 19.2271 11.5865 19.6371 11.5344C19.4975 11.8762 19.4626 12.204 19.5301 12.5241C19.5884 12.7997 19.7185 13.047 19.8876 13.2732C20.078 13.1272 20.3015 13.0239 20.5382 12.9726Z" fill="#1D2433"/>
    <path d="M24.9225 53.5753C25.5057 53.5753 25.9785 53.1153 25.9785 52.5479C25.9785 52.009 25.5519 51.567 25.0094 51.524C24.9509 51.5311 24.8899 51.5349 24.8264 51.5349L24.8035 51.5347L24.786 51.5344C24.7759 51.5341 24.7659 51.5337 24.7559 51.5333C24.2519 51.611 23.8665 52.0357 23.8665 52.5479C23.8665 53.1153 24.3393 53.5753 24.9225 53.5753Z" fill="#1D2433"/>
    <path d="M29.9783 48.7484L34.8552 54.8045C34.9751 54.9534 35.1964 54.9795 35.3494 54.8629C35.4147 54.8131 35.457 54.7454 35.4747 54.6726C35.4952 54.5773 35.4738 54.4741 35.4073 54.3914L34.1247 52.7988L34.1327 52.7967L33.6601 52.2098L33.6521 52.2118L30.5535 48.3641C30.5057 48.3988 30.4572 48.4328 30.4083 48.4661C30.2665 48.5638 30.123 48.6578 29.9783 48.7484Z" fill="#1D2433"/>
    <path d="M19.6944 48.7823C19.4921 48.664 19.2973 48.5351 19.1109 48.3964L14.2831 54.3914C14.2232 54.4659 14.1999 54.5569 14.2107 54.6438C14.2178 54.7004 14.2392 54.7552 14.2743 54.8026C14.2933 54.8282 14.3162 54.8517 14.343 54.8721C14.4961 54.9888 14.7173 54.9627 14.8372 54.8138L19.6944 48.7823Z" fill="#1D2433"/>
    <path d="M34.0374 47.3962C33.3761 46.5501 33.3742 45.722 34.0319 44.9116C34.0767 44.8561 34.1221 44.8588 34.1681 44.9197C34.29 45.0814 34.3951 45.2619 34.4836 45.4612C34.724 46.005 34.6733 46.4692 34.458 46.9087C34.7792 46.296 35.3585 45.9636 36.1959 45.9115C36.3246 45.9032 36.3722 45.9568 36.3389 46.0723C36.0675 47.0064 35.4154 47.497 34.3824 47.5444C34.2826 47.5486 34.2441 47.5058 34.2668 47.416C34.3093 47.2507 34.3642 47.0991 34.4316 46.9609C34.3544 47.109 34.2589 47.2544 34.1501 47.3994C34.144 47.4075 34.1358 47.4139 34.1262 47.4183C34.1166 47.4227 34.1059 47.4248 34.0949 47.4245C34.0839 47.4242 34.0729 47.4214 34.0629 47.4165C34.0529 47.4116 34.0442 47.4046 34.0374 47.3962Z" fill="#1D2433"/>
    <path d="M34.9864 45.7908C34.2117 45.0737 34.0771 44.2738 34.5826 43.391C34.617 43.3305 34.6613 43.3262 34.7155 43.3782C34.8592 43.5158 34.9897 43.6743 35.1072 43.8534C35.4269 44.3426 35.4522 44.7992 35.3144 45.2568C35.5261 44.6152 36.0327 44.2057 36.8341 44.028C36.9571 44.0004 37.0117 44.045 36.998 44.1617C36.8856 45.1054 36.3342 45.6784 35.3438 45.881C35.248 45.9003 35.2039 45.8647 35.2114 45.7745C35.226 45.6081 35.2548 45.4529 35.2979 45.309C35.247 45.4642 35.1779 45.6197 35.0958 45.7767C35.0912 45.7854 35.0844 45.793 35.0758 45.7986C35.0672 45.8043 35.0572 45.808 35.0465 45.8093C35.0358 45.8107 35.0247 45.8097 35.0143 45.8065C35.0039 45.8033 34.9943 45.7979 34.9864 45.7908Z" fill="#1D2433"/>
    <path d="M16.1945 46.2057C17.0771 46.7416 17.3571 47.5064 17.0347 48.5C17.0313 48.51 17.0256 48.5192 17.0181 48.527C17.0105 48.5347 17.0014 48.5407 16.9913 48.5446C16.9812 48.5484 16.9706 48.5499 16.9603 48.549C16.95 48.5481 16.9402 48.5447 16.9319 48.5392C16.7795 48.4388 16.6398 48.3335 16.5166 48.2195C16.628 48.3266 16.7323 48.4507 16.8294 48.5919C16.8809 48.6676 16.8599 48.7195 16.7663 48.7477C15.7972 49.0367 15.0286 48.7939 14.4604 48.0195C14.3903 47.9237 14.416 47.8589 14.5375 47.8251C15.3311 47.6026 15.9806 47.7245 16.4862 48.1908C16.1347 47.8538 15.9277 47.4404 15.9648 46.8583C15.9786 46.6459 16.0142 46.4455 16.0716 46.2571C16.0933 46.1861 16.1343 46.169 16.1945 46.2057Z" fill="#1D2433"/>
    <path d="M15.4062 44.9116C16.0639 45.722 16.062 46.5501 15.4006 47.3962C15.3939 47.4046 15.3851 47.4116 15.3752 47.4165C15.3652 47.4214 15.3542 47.4242 15.3433 47.4245C15.3322 47.4248 15.3215 47.4227 15.3119 47.4183C15.3023 47.4139 15.2941 47.4075 15.2881 47.3994C15.1789 47.254 15.0831 47.1081 15.0058 46.9595C15.0735 47.098 15.1287 47.2502 15.1712 47.416C15.194 47.5058 15.1555 47.5486 15.0557 47.5444C14.0227 47.497 13.3705 47.0064 13.0992 46.0723C13.0659 45.9568 13.1134 45.9032 13.2421 45.9115C14.0802 45.9637 14.6598 46.2965 14.9808 46.9101C14.7649 46.4702 14.7139 46.0055 14.9545 45.4612C15.043 45.2619 15.1481 45.0814 15.27 44.9197C15.3159 44.8588 15.3614 44.8561 15.4062 44.9116Z" fill="#1D2433"/>
    <path d="M14.8549 43.391C15.3604 44.2738 15.2258 45.0737 14.4511 45.7908C14.4432 45.7979 14.4337 45.8033 14.4232 45.8065C14.4127 45.8097 14.4018 45.8107 14.3911 45.8093C14.3804 45.808 14.3703 45.8043 14.3618 45.7986C14.3532 45.793 14.3464 45.7854 14.3418 45.7767C14.2614 45.6231 14.1935 45.471 14.1429 45.3191C14.1844 45.4602 14.2122 45.612 14.2264 45.7745C14.234 45.8647 14.1899 45.9003 14.0941 45.881C13.1037 45.6784 12.5523 45.1054 12.4399 44.1617C12.4262 44.045 12.4808 44.0004 12.6038 44.028C13.401 44.2047 13.9065 44.611 14.1202 45.2467C13.9857 44.7925 14.013 44.339 14.3304 43.8534C14.4478 43.6743 14.5783 43.5158 14.722 43.3782C14.7762 43.3262 14.8206 43.3305 14.8549 43.391Z" fill="#1D2433"/>
    <path d="M28.7944 51.1781C28.7944 51.5564 28.4792 51.863 28.0904 51.863C27.7016 51.863 27.3864 51.5564 27.3864 51.1781C27.3864 50.7998 27.7016 50.4931 28.0904 50.4931C28.4792 50.4931 28.7944 50.7998 28.7944 51.1781Z" fill="#1D2433"/>
    <path d="M22.4586 51.1781C22.4586 51.5564 22.1434 51.863 21.7546 51.863C21.3658 51.863 21.0506 51.5564 21.0506 51.1781C21.0506 50.7998 21.3658 50.4931 21.7546 50.4931C22.1434 50.4931 22.4586 50.7998 22.4586 51.1781Z" fill="#1D2433"/>
    <path d="M30.2977 28.3185C29.9784 26.8549 30.5229 25.7326 31.931 24.9519C32.1042 24.8554 32.2078 24.8985 32.2419 25.0812C32.3553 25.6918 32.3255 26.24 32.1525 26.726C32.6356 26.5867 33.1861 26.5652 33.804 26.6616C34.0016 26.692 34.0548 26.789 33.9636 26.9526C33.2237 28.2755 32.064 28.8004 30.4843 28.5274C30.3762 28.5083 30.323 28.4637 30.3247 28.3937C30.3133 28.3734 30.3043 28.3484 30.2977 28.3185Z" fill="#1D2433"/>
    <path d="M33.8673 25.8058C34.2561 25.8058 34.5713 25.4991 34.5713 25.1209C34.5713 24.7426 34.2561 24.436 33.8673 24.436C33.4785 24.436 33.1633 24.7426 33.1633 25.1209C33.1633 25.4991 33.4785 25.8058 33.8673 25.8058Z" fill="#1D2433"/>
    <path d="M17.9275 24.9896C19.3357 25.7705 19.8801 26.8927 19.5609 28.3563C19.5543 28.386 19.5453 28.411 19.5339 28.4312C19.536 28.5016 19.4828 28.5463 19.3743 28.5655C17.7947 28.8385 16.6349 28.3136 15.8951 26.9907C15.8039 26.8271 15.857 26.7301 16.0546 26.6997C16.6725 26.6033 17.223 26.6248 17.7061 26.7642C17.5331 26.2781 17.5032 25.7297 17.6166 25.119C17.6507 24.9363 17.7544 24.8932 17.9275 24.9896Z" fill="#1D2433"/>
    <path d="M15.2875 25.159C15.2875 25.5373 15.6026 25.844 15.9914 25.844C16.3803 25.844 16.6954 25.5373 16.6954 25.159C16.6954 24.7808 16.3803 24.4741 15.9914 24.4741C15.6026 24.4741 15.2875 24.7808 15.2875 25.159Z" fill="#1D2433"/>
    <path fill-rule="evenodd" clip-rule="evenodd" d="M22.7666 25.5851C22.143 25.9222 21.8238 26.8187 21.7049 27.2379C21.6905 27.2353 21.6759 27.2339 21.6611 27.2339C21.4386 27.2339 21.2582 27.5385 21.2582 27.9143C21.2582 28.2901 21.4386 28.5947 21.6611 28.5947C21.6764 28.5947 21.6916 28.5933 21.7065 28.5905C21.8517 28.9258 22.0334 29.2547 22.2444 29.5603C22.1289 29.7968 21.8309 30.2141 21.307 30.4416C21.0606 30.5486 20.8298 30.6219 20.6124 30.6882L20.5497 30.7073C20.3609 30.7646 20.1654 30.824 20.0007 30.8994C19.7278 31.0242 19.4812 31.2193 19.3926 31.5791C19.3027 31.9439 19.4948 32.2216 19.6781 32.3841C19.8586 32.5439 20.0793 32.6424 20.2188 32.6865C20.4037 32.745 20.6023 32.6466 20.6624 32.4668C20.7225 32.2869 20.6214 32.0937 20.4365 32.0352C20.3624 32.0117 20.2386 31.9543 20.1521 31.8776C20.0684 31.8035 20.0709 31.764 20.0771 31.7388C20.0971 31.6577 20.1364 31.6015 20.2601 31.5386C20.4184 31.5203 20.6429 31.5753 20.9626 31.7376C21.2734 31.8953 21.6126 32.1209 21.9919 32.3732L22.0893 32.438C22.4988 32.71 22.9473 33.0029 23.4093 33.2266C23.8709 33.4502 24.3722 33.6181 24.8893 33.6181C25.4063 33.6181 25.9076 33.4502 26.3692 33.2266C26.8312 33.0029 27.2797 32.71 27.6892 32.438L27.7866 32.3732C28.166 32.1209 28.5052 31.8953 28.8159 31.7376C29.1356 31.5753 29.3601 31.5203 29.5184 31.5386C29.6421 31.6015 29.6814 31.6577 29.7014 31.7388C29.7076 31.764 29.7101 31.8035 29.6264 31.8776C29.5399 31.9543 29.4161 32.0117 29.342 32.0352C29.1571 32.0937 29.056 32.2869 29.1161 32.4668C29.1762 32.6466 29.3748 32.745 29.5597 32.6865C29.6992 32.6424 29.9199 32.5439 30.1004 32.3841C30.2837 32.2216 30.4758 31.9439 30.3859 31.5791C30.2973 31.2193 30.0507 31.0242 29.7778 30.8994C29.6131 30.824 29.4176 30.7646 29.2288 30.7073L29.1661 30.6882C28.9487 30.6219 28.718 30.5486 28.4715 30.4416C27.9257 30.2045 27.6251 29.7616 27.5205 29.5316C27.7282 29.2387 27.904 28.9216 28.0307 28.5927L28.0368 28.5934C28.0452 28.5943 28.0537 28.5947 28.0622 28.5947C28.2847 28.5947 28.4651 28.2901 28.4651 27.9143C28.4651 27.5385 28.2847 27.2339 28.0622 27.2339C28.036 27.2339 28.0104 27.2381 27.9856 27.2462C27.8651 26.8518 27.5685 26.0104 27.1204 25.5851C26.4329 25.5853 25.6237 25.5853 24.7838 25.5852H24.7614C24.1003 25.5851 23.4206 25.5851 22.7666 25.5851ZM24.2976 26.737L22.0619 27.6299L23.8016 26.5803C24.4853 26.1678 25.3506 26.1691 26.033 26.5837L27.705 27.5993L27.7018 27.61L25.4971 26.7356C25.1125 26.5831 24.6818 26.5836 24.2976 26.737ZM24.4313 27.0538C24.5283 27.015 24.6292 26.9888 24.7314 26.9752V29.0756C24.6103 29.0594 24.4911 29.0255 24.378 28.9741L24.2041 28.8951V27.1445L24.4313 27.0538ZM23.8521 27.2851V28.7351L23.3385 28.5018V27.4902L23.8521 27.2851ZM22.1616 27.967L22.9865 28.3418V27.6308L22.1616 27.9603V27.967ZM25.0834 29.0733V26.9775C25.1789 26.9916 25.2732 27.0166 25.3642 27.0527L25.6265 27.1567V28.8813L25.4177 28.9755C25.3105 29.0239 25.1978 29.0565 25.0834 29.0733ZM26.8687 28.3206L27.6531 27.9666V27.9606L26.8687 27.6495V28.3206ZM26.5167 28.4795V27.5098L25.9785 27.2963V28.7224L26.5167 28.4795ZM27.3108 28.4986L25.5658 29.5694C25.1418 29.7608 24.6526 29.7602 24.229 29.5677L22.4167 28.4609C22.6616 28.9824 23.0027 29.4736 23.3965 29.8501C23.8799 30.3121 24.4068 30.5692 24.9079 30.5581C25.2944 30.5495 25.8291 30.2918 26.3396 29.8241C26.7427 29.455 27.0937 28.9879 27.3108 28.4986Z" fill="#1D2433"/>
    <path d="M25.2772 20.0662C25.2772 19.8771 25.1196 19.7237 24.9252 19.7237C24.7308 19.7237 24.5732 19.8771 24.5732 20.0662V20.2244H24.4103C24.2159 20.2244 24.0583 20.3777 24.0583 20.5669C24.0583 20.756 24.2159 20.9093 24.4103 20.9093H24.5732V21.0672C24.5732 21.2564 24.7308 21.4097 24.9252 21.4097C25.1196 21.4097 25.2772 21.2564 25.2772 21.0672V20.9093H25.4392C25.6336 20.9093 25.7912 20.756 25.7912 20.5669C25.7912 20.3777 25.6336 20.2244 25.4392 20.2244H25.2772V20.0662Z" fill="#1D2433"/>
    <path d="M23.3998 22.3362C23.4436 22.0833 23.553 21.8521 23.7104 21.6598C23.3303 21.6164 22.915 21.6806 22.5814 21.9636C22.3413 21.9147 22.0804 21.8916 21.8195 21.9472C21.4663 22.0225 21.1591 22.231 20.9091 22.5986C20.6899 22.9206 20.6423 23.244 20.7425 23.5548C20.8339 23.8383 21.0379 24.0749 21.2311 24.2688C21.3272 24.3653 21.4306 24.4606 21.5289 24.5512L21.5393 24.5608C21.6106 24.6265 21.6796 24.6902 21.7457 24.7538C21.7447 24.6702 21.7575 24.5874 21.7827 24.5087C21.8123 24.4158 21.8595 24.3274 21.9213 24.2489C21.9636 24.1953 22.0053 24.1402 22.0459 24.0842L22.018 24.0584C21.916 23.9645 21.822 23.8778 21.7366 23.7921C21.5567 23.6116 21.4535 23.4716 21.4142 23.3498C21.3837 23.2553 21.3819 23.1444 21.4961 22.9767C21.6605 22.735 21.8212 22.6481 21.9702 22.6163C22.0238 22.6049 22.0811 22.5995 22.1427 22.5997C22.0812 22.7741 22.0654 22.9495 22.1027 23.1261C22.1454 23.3283 22.2516 23.4988 22.3755 23.6436C22.5052 23.5269 22.6694 23.4494 22.8439 23.4224C22.9245 23.4099 23.0084 23.3966 23.0938 23.3825C23.0751 23.3658 23.0567 23.3488 23.0385 23.3317C22.8764 23.1788 22.8102 23.0729 22.7923 22.9883C22.7783 22.9221 22.7814 22.8069 22.9326 22.6009C23.0506 22.4403 23.2085 22.3563 23.3998 22.3362Z" fill="#1D2433"/>
    <path d="M27.9677 24.8411C27.9451 24.8637 27.9233 24.886 27.9023 24.9081C27.9257 24.7602 27.9066 24.6109 27.8532 24.4763C27.8099 24.3672 27.7428 24.2647 27.6561 24.1783C27.6986 24.1388 27.7407 24.1002 27.7817 24.0627L27.7873 24.0576C27.89 23.9635 27.9846 23.877 28.0707 23.7912C28.252 23.6106 28.3559 23.4707 28.3954 23.3491C28.4258 23.2554 28.4279 23.1452 28.313 22.9776C28.1639 22.76 28.0185 22.6693 27.8862 22.6297C27.8126 22.6077 27.7314 22.598 27.6399 22.6C27.665 22.6713 27.6825 22.7433 27.6919 22.816C27.7194 23.0311 27.6713 23.2244 27.5805 23.3941C27.4997 23.545 27.3862 23.6757 27.2685 23.7903L27.2391 23.7576C27.0999 23.6008 26.9049 23.498 26.6967 23.4669C26.6672 23.4625 26.6374 23.4579 26.6073 23.4531C26.657 23.411 26.7032 23.3702 26.7461 23.3297C26.8512 23.2303 26.918 23.1489 26.956 23.0778C26.9904 23.0136 27.0008 22.9593 26.9933 22.9007C26.9851 22.8365 26.9516 22.7395 26.8498 22.6009C26.7383 22.4491 26.5911 22.3658 26.4139 22.3401C26.3703 22.0844 26.2596 21.8507 26.1 21.6568C26.4738 21.6195 26.8784 21.688 27.2044 21.9665L27.2139 21.9644C27.4861 21.909 27.7901 21.8844 28.0931 21.9751C28.4053 22.0685 28.6753 22.2716 28.8987 22.5976C29.1195 22.9198 29.1678 23.2439 29.0666 23.5555C28.9745 23.8393 28.7689 24.0759 28.5744 24.2697C28.4776 24.3661 28.3735 24.4614 28.2745 24.552L28.264 24.5616C28.1598 24.657 28.0605 24.7482 27.9677 24.8411Z" fill="#1D2433"/>
    <path d="M24.9065 23.3871C25.3616 23.3871 25.7306 23.0282 25.7306 22.5853C25.7306 22.1425 25.3616 21.7836 24.9065 21.7836C24.4513 21.7836 24.0824 22.1425 24.0824 22.5853C24.0824 23.0282 24.4513 23.3871 24.9065 23.3871Z" fill="#1D2433"/>
    <path d="M22.8012 24.2695V24.5264C22.8012 24.6133 22.7078 24.6705 22.6273 24.6328C22.5029 24.5748 22.3912 24.7315 22.4907 24.8245L22.7501 25.0668C22.7829 25.0974 22.8265 25.1145 22.872 25.1145H26.8458C26.8912 25.1145 26.9349 25.0974 26.9677 25.0668L27.1531 24.8936C27.2859 24.7695 27.1458 24.5581 26.9749 24.6246C26.8648 24.6675 26.7451 24.5886 26.7451 24.4733V24.315C26.7451 24.1641 26.5591 24.087 26.4472 24.1915L26.125 24.4924C26.0236 24.5871 25.8546 24.5336 25.8299 24.399L25.7741 24.0948C25.7494 23.9602 25.5804 23.9067 25.479 24.0014L24.9808 24.4667C24.9127 24.5304 24.8051 24.5304 24.737 24.4667L24.187 23.953C24.0977 23.8696 23.9502 23.8995 23.9026 24.0107L23.7484 24.3707C23.7034 24.4758 23.5674 24.5097 23.476 24.4385L23.0871 24.1358C22.9719 24.0461 22.8012 24.1259 22.8012 24.2695Z" fill="#1D2433"/>
    <path d="M21.7793 40.886C21.7793 41.1698 21.5429 41.3997 21.2513 41.3997C20.9597 41.3997 20.7234 41.1698 20.7234 40.886C20.7234 40.6023 20.9597 40.3724 21.2513 40.3724C21.5429 40.3724 21.7793 40.6023 21.7793 40.886Z" fill="#BA2532"/>
    <path d="M28.9429 40.886C28.9429 41.1698 28.7065 41.3997 28.4149 41.3997C28.1233 41.3997 27.8869 41.1698 27.8869 40.886C27.8869 40.6023 28.1233 40.3724 28.4149 40.3724C28.7065 40.3724 28.9429 40.6023 28.9429 40.886Z" fill="#0B9141"/>
    <path d="M22.1891 44.2716C22.1891 44.5553 21.9527 44.7853 21.6611 44.7853C21.3695 44.7853 21.1331 44.5553 21.1331 44.2716C21.1331 43.9879 21.3695 43.7579 21.6611 43.7579C21.9527 43.7579 22.1891 43.9879 22.1891 44.2716Z" fill="#BA2532"/>
    <path d="M27.9749 44.7853C28.2665 44.7853 28.5029 44.5553 28.5029 44.2716C28.5029 43.9879 28.2665 43.7579 27.9749 43.7579C27.6833 43.7579 27.4469 43.9879 27.4469 44.2716C27.4469 44.5553 27.6833 44.7853 27.9749 44.7853Z" fill="#0B9141"/>
    <path fill-rule="evenodd" clip-rule="evenodd" d="M30.9473 45.9204C31.2854 45.3565 31.4926 44.7285 31.5544 44.0798C31.6142 43.4165 31.5544 42.7244 31.375 42.0034C31.1804 41.2248 30.8805 40.4971 30.5828 39.7747L30.5825 39.7739C30.4916 39.5533 30.4008 39.3331 30.3134 39.1123C29.9745 38.2375 29.7328 37.3579 29.5883 36.4735C29.4388 35.4929 29.4687 34.4043 29.9621 33.5535C29.9662 33.5481 29.9688 33.5418 29.9694 33.5351C29.97 33.5284 29.9687 33.5217 29.9656 33.5157C29.9625 33.5098 29.9577 33.5047 29.9518 33.5012C29.9459 33.4977 29.9391 33.4958 29.9322 33.4958H27.5215C27.1492 33.7996 26.5423 34.0905 26.0417 34.1538C25.9784 34.1843 25.9599 34.1969 25.9931 34.2109C26.4496 34.403 26.8477 34.7048 27.1492 35.0878C27.459 35.4813 27.6558 35.9467 27.7198 36.4369C27.7837 36.9272 27.7126 37.425 27.5136 37.8803C27.3146 38.3357 26.9946 38.7323 26.586 39.0305C26.1774 39.3286 25.6946 39.5176 25.1861 39.5784C24.6776 39.6393 24.1615 39.5699 23.6898 39.3771C23.218 39.1844 22.8072 38.8752 22.4988 38.4806C22.1904 38.086 21.9952 37.62 21.933 37.1296C21.7734 35.8636 22.4581 34.713 23.6595 34.2109L23.6673 34.2077C23.7037 34.193 23.7663 34.1677 23.6828 34.1274C23.1634 34.0579 22.7576 33.8408 22.325 33.4958H19.7276C19.72 33.4942 19.7122 33.4949 19.705 33.4977C19.6979 33.5006 19.6918 33.5056 19.6877 33.5119C19.6836 33.5182 19.6817 33.5256 19.6821 33.5331C19.6826 33.5405 19.6854 33.5477 19.6902 33.5535C19.9344 33.9909 20.0715 34.4788 20.1014 35.0171C20.1363 35.5891 20.1188 36.0865 20.0491 36.5095C19.8206 37.9484 19.2991 39.2229 18.7318 40.6092L18.6511 40.8066C18.4318 41.3353 18.2648 41.9313 18.1502 42.5946C17.9351 43.6019 18.0652 44.6493 18.521 45.5791C18.9767 46.5088 19.7334 47.2706 20.677 47.7496C21.2602 48.0765 21.9704 48.4369 22.8077 48.8311C23.5029 49.1627 24.2729 49.5737 24.7962 50.1505C24.8162 50.1697 24.8336 50.1697 24.8486 50.1505C25.2747 49.6746 25.8578 49.3141 26.4559 49.0257C26.6207 48.9457 26.7855 48.8667 26.95 48.7878C27.8669 48.3482 28.7717 47.9144 29.5958 47.3459C30.148 46.9707 30.6091 46.4843 30.9473 45.9204ZM22.1787 39.9928C22.4282 40.2335 22.5684 40.5599 22.5684 40.9003C22.5684 41.2407 22.4282 41.5671 22.1787 41.8077C21.9291 42.0484 21.5907 42.1836 21.2377 42.1836C20.8848 42.1836 20.5463 42.0484 20.2968 41.8077C20.0472 41.5671 19.907 41.2407 19.907 40.9003C19.907 40.5599 20.0472 40.2335 20.2968 39.9928C20.5463 39.7521 20.8848 39.6169 21.2377 39.6169C21.5907 39.6169 21.9291 39.7521 22.1787 39.9928ZM29.3406 39.9928C29.5901 40.2335 29.7303 40.5599 29.7303 40.9003C29.7303 41.2407 29.5901 41.5671 29.3406 41.8077C29.091 42.0484 28.7525 42.1836 28.3996 42.1836C28.0467 42.1836 27.7082 42.0484 27.4587 41.8077C27.2091 41.5671 27.0689 41.2407 27.0689 40.9003C27.0689 40.5599 27.2091 40.2335 27.4587 39.9928C27.7082 39.7521 28.0467 39.6169 28.3996 39.6169C28.7525 39.6169 29.091 39.7521 29.3406 39.9928ZM22.6198 43.3526C22.8693 43.5933 23.0095 43.9197 23.0095 44.2601H23.017C23.017 44.4292 22.9823 44.5967 22.915 44.7528C22.8476 44.909 22.749 45.0508 22.6246 45.1701C22.5002 45.2893 22.3527 45.3837 22.1903 45.4478C22.028 45.5119 21.8542 45.5443 21.6788 45.5434C21.3259 45.5434 20.9874 45.4082 20.7379 45.1675C20.4883 44.9268 20.3481 44.6004 20.3481 44.2601C20.3481 43.9197 20.4883 43.5933 20.7379 43.3526C20.9874 43.1119 21.3259 42.9767 21.6788 42.9767C22.0317 42.9767 22.3702 43.1119 22.6198 43.3526ZM28.907 43.3526C29.1565 43.5933 29.2967 43.9197 29.2967 44.2601C29.2967 44.6004 29.1565 44.9268 28.907 45.1675C28.6574 45.4082 28.3189 45.5434 27.966 45.5434C27.6131 45.5434 27.2746 45.4082 27.0251 45.1675C26.7755 44.9268 26.6353 44.6004 26.6353 44.2601C26.6353 43.9197 26.7755 43.5933 27.0251 43.3526C27.2746 43.1119 27.6131 42.9767 27.966 42.9767C28.3189 42.9767 28.6574 43.1119 28.907 43.3526ZM25.7671 44.9892C26.0167 45.2299 26.1569 45.5563 26.1569 45.8967V45.9039C26.1578 46.073 26.1242 46.2407 26.0577 46.3972C25.9913 46.5538 25.8934 46.6961 25.7698 46.816C25.6461 46.936 25.4991 47.0311 25.3371 47.0961C25.1752 47.161 25.0015 47.1945 24.8262 47.1944C24.6489 47.1964 24.473 47.1641 24.3088 47.0996C24.1447 47.0351 23.9955 46.9395 23.8702 46.8186C23.7448 46.6978 23.6458 46.5539 23.5788 46.3956C23.5119 46.2373 23.4785 46.0676 23.4805 45.8967C23.4805 45.7269 23.5154 45.5589 23.5832 45.4022C23.651 45.2456 23.7504 45.1034 23.8755 44.9841C24.0007 44.8647 24.1491 44.7705 24.3123 44.7069C24.4755 44.6432 24.6501 44.6114 24.8262 44.6133C25.1791 44.6133 25.5175 44.7485 25.7671 44.9892Z" fill="#1D2433"/>
    <path d="M23.4431 37.4904V37.4616C23.4481 37.4376 23.458 37.4207 23.473 37.4111C23.5228 37.3679 23.5627 37.3198 23.5926 37.2669C23.6356 37.1891 23.6981 37.1224 23.7575 37.059C23.7807 37.0342 23.8034 37.01 23.8243 36.9858C23.8542 36.9617 23.8542 36.9377 23.8243 36.9137C23.6698 36.8127 23.6075 36.6445 23.6374 36.409C23.6524 36.2215 23.7521 36.1278 23.9365 36.1278C24.071 36.1278 24.1682 36.2504 24.1832 36.3657C24.1832 36.3946 24.1956 36.4018 24.2206 36.3873C24.2455 36.3681 24.2604 36.3441 24.2654 36.3152C24.3053 36.0941 24.2455 35.9115 24.086 35.7673C23.8468 35.5414 23.6325 35.3491 23.4431 35.1905C23.4361 35.1839 23.4267 35.1802 23.4169 35.1802C23.4071 35.1802 23.3977 35.1839 23.3907 35.1905C23.3608 35.2338 23.321 35.2746 23.2711 35.3131C23.0518 35.4765 22.8674 35.6447 22.7179 35.8178C22.5833 35.9716 22.541 36.1398 22.5908 36.3225C22.6108 36.3994 22.6407 36.3994 22.6805 36.3225C22.83 36.0124 23.2038 36.0773 23.2338 36.4162C23.2537 36.6277 23.1864 36.8007 23.0319 36.9353C23.012 36.9497 23.012 36.9689 23.0319 36.993C23.1964 37.1372 23.321 37.3054 23.4057 37.4977C23.4306 37.5505 23.4431 37.5481 23.4431 37.4904Z" fill="#1D2433"/>
    <path d="M26.2017 35.1833C26.2166 35.1689 26.2291 35.1689 26.239 35.1833C26.3006 35.2459 26.3858 35.3155 26.4785 35.3913C26.8024 35.6562 27.2175 35.9957 27.0315 36.3657C27.0116 36.3994 26.9941 36.3994 26.9792 36.3657C26.867 36.0196 26.4409 36.0557 26.411 36.4378C26.3911 36.6589 26.4534 36.8175 26.5979 36.9137C26.6228 36.9281 26.6253 36.9473 26.6054 36.9713L26.3063 37.3679C26.2864 37.3871 26.2739 37.4111 26.269 37.44C26.269 37.464 26.259 37.4832 26.239 37.4977C26.2141 37.5121 26.1967 37.5073 26.1867 37.4832C26.097 37.291 25.9749 37.1275 25.8204 36.993C25.8154 36.9883 25.8115 36.9827 25.8088 36.9765C25.8061 36.9703 25.8047 36.9636 25.8047 36.9569L25.8048 36.9541C25.8049 36.9524 25.8051 36.9507 25.8053 36.949L25.8063 36.9447L25.8072 36.9415L25.8088 36.9374C25.8115 36.9312 25.8154 36.9256 25.8204 36.9209C25.9849 36.8007 26.0497 36.6229 26.0148 36.3873C25.9923 36.272 25.9176 36.1494 25.7905 36.1278C25.626 36.1038 25.5164 36.1807 25.4616 36.3585C25.4466 36.397 25.4292 36.3994 25.4092 36.3657C25.3893 36.3369 25.3793 36.3056 25.3793 36.272C25.3494 36.0461 25.4317 35.849 25.626 35.6808C25.8005 35.527 25.9749 35.3804 26.1493 35.241L26.1942 35.1977L26.2017 35.1833Z" fill="#1D2433"/>
    <path d="M24.437 37.8292C24.2875 37.7956 24.1704 37.8413 24.0857 37.9662C24.0707 37.9855 24.0632 38.0071 24.0632 38.0311C24.0533 38.108 24.0333 38.108 24.0034 38.0311C23.8331 37.6169 24.3083 37.2592 24.6152 37.0283L24.6239 37.0217C24.6837 36.9737 24.7336 36.9184 24.7734 36.8559C24.7934 36.8271 24.8183 36.8223 24.8482 36.8415L24.923 36.928C24.9329 36.9521 24.9504 36.9713 24.9753 36.9857C25.1846 37.1443 25.369 37.3125 25.5285 37.4904C25.688 37.6634 25.7229 37.8533 25.6332 38.06C25.6232 38.0936 25.6107 38.0936 25.5958 38.06C25.516 37.8389 25.3615 37.7692 25.1323 37.8509C25.1124 37.8605 25.0949 37.8773 25.08 37.9014C24.9603 38.1176 24.9828 38.4781 25.2369 38.6151C25.2385 38.6165 25.2399 38.6179 25.2412 38.6195L25.2429 38.6221L25.2444 38.6249L25.2455 38.6274L25.2463 38.6302L25.247 38.6341L25.2471 38.6367C25.2471 38.6408 25.2462 38.6449 25.2444 38.6486C25.2436 38.6504 25.2426 38.6521 25.2414 38.6537L25.2391 38.6563L25.2369 38.6584C25.0675 38.793 24.9379 38.9636 24.8482 39.1703C24.8382 39.1991 24.8183 39.2039 24.7884 39.1847C24.7784 39.1751 24.7759 39.1655 24.7809 39.1559V39.1054C24.6812 38.9372 24.5566 38.7858 24.4071 38.6512C24.4031 38.6468 24.4003 38.6415 24.3988 38.6358C24.3974 38.6301 24.3974 38.6242 24.3989 38.6185C24.3995 38.6159 24.4005 38.6133 24.4018 38.6109C24.4033 38.6082 24.4051 38.6056 24.4073 38.6032C24.4113 38.5989 24.4164 38.5955 24.4221 38.5935C24.462 38.5839 24.4943 38.5598 24.5193 38.5214C24.6339 38.3772 24.6663 38.209 24.6165 38.0167C24.5915 37.9158 24.5317 37.8533 24.437 37.8292Z" fill="#1D2433"/>
    <path d="M35.8851 31.9525C36.0795 31.9525 36.2371 31.7992 36.2371 31.61C36.2371 31.4209 36.0795 31.2676 35.8851 31.2676C35.6907 31.2676 35.5331 31.4209 35.5331 31.61C35.5331 31.7992 35.6907 31.9525 35.8851 31.9525Z" fill="#BA2532"/>
    <path d="M35.549 35.111L32.9998 35.7311C32.9867 35.7367 32.9719 35.7376 32.9582 35.7336C32.9445 35.7297 32.9327 35.7211 32.925 35.7094C32.9101 35.6758 32.915 35.647 32.94 35.6229C33.1543 35.4018 33.4134 35.1519 33.7175 34.8731C33.728 34.8624 33.7338 34.8482 33.7338 34.8335C33.7338 34.8187 33.728 34.8045 33.7175 34.7938L32.94 34.0512C32.92 34.032 32.9175 34.0055 32.9325 33.9719C32.939 33.9567 32.9508 33.9442 32.9657 33.9363C32.9807 33.9284 32.998 33.9257 33.0147 33.9286L35.564 34.5559C35.5889 34.5607 35.5964 34.5535 35.5864 34.5342L34.9435 32.0829C34.9415 32.0734 34.9415 32.0636 34.9435 32.0541C34.9684 31.9676 34.9933 31.9363 35.0183 31.9603L35.8556 32.7534C35.862 32.7581 35.8699 32.7606 35.878 32.7606C35.8861 32.7606 35.8939 32.7581 35.9004 32.7534L36.6704 32.0108C36.6953 31.982 36.7277 31.9748 36.7676 31.9892C36.7849 31.9957 36.799 32.0081 36.8073 32.0241C36.8156 32.0401 36.8174 32.0585 36.8125 32.0757C36.5732 32.888 36.3539 33.7027 36.1546 34.5198C36.1496 34.5487 36.1621 34.5583 36.192 34.5487L38.7487 33.9286C38.7587 33.9258 38.7691 33.9249 38.7794 33.9262C38.7897 33.9274 38.7996 33.9307 38.8085 33.9358C38.8434 33.9647 38.8559 33.9887 38.8459 34.0079L38.8235 34.0296L38.0236 34.8082C38.0204 34.8109 38.0178 34.8143 38.0161 34.818C38.0143 34.8217 38.0134 34.8258 38.0134 34.8298L38.0135 34.8315L38.0137 34.8338L38.0143 34.8366C38.0147 34.8384 38.0153 34.8401 38.0161 34.8417L38.0173 34.844L38.0191 34.8468C38.0204 34.8485 38.0219 34.8501 38.0236 34.8515L38.816 35.6085C38.8359 35.6325 38.8359 35.659 38.816 35.6878C38.8087 35.7003 38.7977 35.7104 38.7843 35.7169C38.771 35.7233 38.756 35.7257 38.7412 35.7239L36.177 35.1038C36.1742 35.1034 36.1714 35.1038 36.1688 35.1049C36.1662 35.1061 36.164 35.1078 36.1625 35.1101L36.162 35.1109L36.1609 35.1132L36.1602 35.1158L36.16 35.1177L36.1602 35.1204L36.1606 35.1224L36.1621 35.1255C36.3614 35.9522 36.5732 36.7597 36.7975 37.5479C36.8324 37.6729 36.79 37.7042 36.6704 37.6417C36.6355 37.6224 36.5982 37.5912 36.5583 37.5479C36.339 37.322 36.1172 37.1105 35.8929 36.9135C35.8865 36.9088 35.8786 36.9063 35.8705 36.9063C35.8682 36.9063 35.8658 36.9065 35.8635 36.9069L35.86 36.9077C35.8582 36.9082 35.8564 36.9089 35.8547 36.9097L35.8526 36.9107C35.851 36.9115 35.8495 36.9124 35.8481 36.9135L35.1379 37.5912C34.9784 37.7402 34.9136 37.7114 34.9435 37.5047C34.9555 37.4238 34.9888 37.3409 35.0229 37.2559C35.0527 37.1818 35.0831 37.1061 35.1005 37.0288C35.265 36.3607 35.4244 35.7335 35.5789 35.1471C35.5889 35.1182 35.5789 35.1062 35.549 35.111Z" fill="#0B9141"/>
    <path d="M34.4772 33.7628C34.6716 33.7628 34.8292 33.6095 34.8292 33.4204C34.8292 33.2312 34.6716 33.0779 34.4772 33.0779C34.2828 33.0779 34.1252 33.2312 34.1252 33.4204C34.1252 33.6095 34.2828 33.7628 34.4772 33.7628Z" fill="#BA2532"/>
    <path d="M37.2931 33.7628C37.4875 33.7628 37.6451 33.6095 37.6451 33.4204C37.6451 33.2312 37.4875 33.0779 37.2931 33.0779C37.0987 33.0779 36.9411 33.2312 36.9411 33.4204C36.9411 33.6095 37.0987 33.7628 37.2931 33.7628Z" fill="#BA2532"/>
    <path d="M34.4772 36.5026C34.6716 36.5026 34.8292 36.3492 34.8292 36.1601C34.8292 35.971 34.6716 35.8176 34.4772 35.8176C34.2828 35.8176 34.1252 35.971 34.1252 36.1601C34.1252 36.3492 34.2828 36.5026 34.4772 36.5026Z" fill="#BA2532"/>
    <path d="M37.2931 36.5026C37.4875 36.5026 37.6451 36.3492 37.6451 36.1601C37.6451 35.971 37.4875 35.8176 37.2931 35.8176C37.0987 35.8176 36.9411 35.971 36.9411 36.1601C36.9411 36.3492 37.0987 36.5026 37.2931 36.5026Z" fill="#BA2532"/>
    <path d="M35.8851 38.3698C36.0795 38.3698 36.2371 38.2164 36.2371 38.0273C36.2371 37.8382 36.0795 37.6848 35.8851 37.6848C35.6907 37.6848 35.5331 37.8382 35.5331 38.0273C35.5331 38.2164 35.6907 38.3698 35.8851 38.3698Z" fill="#BA2532"/>
    <path d="M13.4577 31.6085C13.4577 31.7977 13.6153 31.951 13.8097 31.951C14.0041 31.951 14.1617 31.7977 14.1617 31.6085C14.1617 31.4194 14.0041 31.2661 13.8097 31.2661C13.6153 31.2661 13.4577 31.4194 13.4577 31.6085Z" fill="#BA2532"/>
    <path d="M16.6951 35.7295L14.1458 35.1095C14.1159 35.1047 14.1059 35.1167 14.1159 35.1456C14.2704 35.7319 14.4299 36.3592 14.5943 37.0273C14.6117 37.1046 14.6422 37.1803 14.6719 37.2544C14.7061 37.3394 14.7394 37.4223 14.7513 37.5032C14.7812 37.7098 14.7164 37.7387 14.557 37.5897L13.8467 36.912C13.8403 36.9073 13.8324 36.9047 13.8243 36.9047C13.8162 36.9047 13.8084 36.9073 13.8019 36.912C13.5776 37.109 13.3558 37.3205 13.1365 37.5464C13.0967 37.5897 13.0593 37.6209 13.0244 37.6401C12.9048 37.7026 12.8624 37.6714 12.8973 37.5464C13.1216 36.7581 13.3334 35.9506 13.5328 35.1239L13.5342 35.1208C13.5347 35.1193 13.5349 35.1178 13.5348 35.1162L13.5347 35.1142L13.534 35.1117L13.5329 35.1094L13.5323 35.1086C13.5308 35.1063 13.5286 35.1045 13.526 35.1034C13.5234 35.1023 13.5206 35.1019 13.5178 35.1023L10.9536 35.7223C10.9388 35.7242 10.9238 35.7218 10.9105 35.7153C10.8972 35.7089 10.8861 35.6988 10.8788 35.6863C10.8589 35.6574 10.8589 35.631 10.8788 35.607L11.6713 34.8499C11.6744 34.8472 11.677 34.8439 11.6787 34.8402C11.6795 34.8385 11.6801 34.8368 11.6805 34.8351L11.6813 34.8311L11.6814 34.8283C11.6814 34.8242 11.6805 34.8202 11.6787 34.8165C11.677 34.8127 11.6744 34.8094 11.6713 34.8067L10.8713 34.028L10.8489 34.0064C10.839 33.9872 10.8514 33.9631 10.8863 33.9343C10.8952 33.9292 10.9051 33.9259 10.9154 33.9246C10.9257 33.9234 10.9362 33.9242 10.9461 33.9271L13.5029 34.5471C13.5328 34.5568 13.5452 34.5471 13.5402 34.5183C13.3409 33.7012 13.1216 32.8865 12.8824 32.0742C12.8774 32.057 12.8792 32.0386 12.8875 32.0226C12.8958 32.0066 12.91 31.9942 12.9272 31.9877C12.9671 31.9732 12.9995 31.9804 13.0244 32.0093L13.7944 32.7519C13.8009 32.7566 13.8088 32.7591 13.8168 32.7591C13.8249 32.7591 13.8328 32.7566 13.8393 32.7519L14.6766 31.9588C14.7015 31.9348 14.7264 31.966 14.7513 32.0525C14.7533 32.0621 14.7533 32.0719 14.7513 32.0814L14.1084 34.5327C14.0984 34.5519 14.1059 34.5592 14.1308 34.5543L16.6801 33.9271C16.6969 33.9242 16.7142 33.9269 16.7291 33.9348C16.7441 33.9426 16.7558 33.9552 16.7623 33.9704C16.7773 34.004 16.7748 34.0304 16.7549 34.0497L15.9774 34.7923C15.9669 34.803 15.961 34.8172 15.961 34.8319C15.961 34.8467 15.9669 34.8609 15.9774 34.8716C16.2814 35.1504 16.5406 35.4003 16.7549 35.6214C16.7798 35.6454 16.7848 35.6743 16.7698 35.7079C16.7621 35.7196 16.7503 35.7281 16.7366 35.7321C16.7229 35.7361 16.7081 35.7352 16.6951 35.7295Z" fill="#BA2532"/>
    <path d="M14.8657 33.4188C14.8657 33.608 15.0232 33.7613 15.2176 33.7613C15.412 33.7613 15.5696 33.608 15.5696 33.4188C15.5696 33.2297 15.412 33.0764 15.2176 33.0764C15.0232 33.0764 14.8657 33.2297 14.8657 33.4188Z" fill="#BA2532"/>
    <path d="M12.0497 33.4188C12.0497 33.608 12.2073 33.7613 12.4017 33.7613C12.5961 33.7613 12.7537 33.608 12.7537 33.4188C12.7537 33.2297 12.5961 33.0764 12.4017 33.0764C12.2073 33.0764 12.0497 33.2297 12.0497 33.4188Z" fill="#BA2532"/>
    <path d="M14.8657 36.1586C14.8657 36.3477 15.0232 36.501 15.2176 36.501C15.412 36.501 15.5696 36.3477 15.5696 36.1586C15.5696 35.9694 15.412 35.8161 15.2176 35.8161C15.0232 35.8161 14.8657 35.9694 14.8657 36.1586Z" fill="#BA2532"/>
    <path d="M12.0497 36.1586C12.0497 36.3477 12.2073 36.501 12.4017 36.501C12.5961 36.501 12.7537 36.3477 12.7537 36.1586C12.7537 35.9694 12.5961 35.8161 12.4017 35.8161C12.2073 35.8161 12.0497 35.9694 12.0497 36.1586Z" fill="#BA2532"/>
    <path d="M13.4577 38.0258C13.4577 38.2149 13.6153 38.3682 13.8097 38.3682C14.0041 38.3682 14.1617 38.2149 14.1617 38.0258C14.1617 37.8366 14.0041 37.6833 13.8097 37.6833C13.6153 37.6833 13.4577 37.8366 13.4577 38.0258Z" fill="#BA2532"/>
    <path fill-rule="evenodd" clip-rule="evenodd" d="M24.279 45.9204C24.279 46.2041 24.5154 46.4341 24.807 46.4341V45.4067C24.5154 45.4067 24.279 45.6367 24.279 45.9204Z" fill="#BA2532"/>
    <path d="M25.335 45.9204C25.335 45.6367 25.0986 45.4067 24.807 45.4067V46.4341C25.0986 46.4341 25.335 46.2041 25.335 45.9204Z" fill="#0B9141"/>
    <path fill-rule="evenodd" clip-rule="evenodd" d="M43.1288 21.4243L40.2005 23.318L37.7697 26.3363C38.5777 26.9947 38.5767 28.0615 38.5756 29.2478C38.5737 31.2124 38.5715 33.5049 42.2416 34.8147C42.5213 34.9145 42.5848 35.293 42.3495 35.4707C39.6807 37.4854 36.8122 41.2627 36.091 42.2393C35.9909 42.3748 35.8001 42.4206 35.6466 42.3461C32.7412 40.9368 32.4081 39.4693 32.0421 37.8566C31.8162 36.8613 31.5777 35.8108 30.7144 34.6846C30.6363 34.5826 30.5992 34.4544 30.5917 34.3261C30.5827 34.172 30.6127 34.013 30.7103 33.8934L37.2091 25.9213L39.587 22.9694L40.713 19.6345C40.8115 19.3425 41.0082 19.0913 41.2712 18.9211L44.7119 16.6961C44.7815 16.6511 44.8607 16.6616 44.916 16.7025C44.9436 16.723 44.9652 16.7511 44.9767 16.7837C44.9882 16.8163 44.9895 16.8535 44.9765 16.8921L43.6871 20.7109C43.5885 21.0029 43.3919 21.2541 43.1288 21.4243ZM35.7026 41.598C36.5801 40.427 39.0466 37.2565 41.4856 35.2665C39.846 34.5792 38.9051 33.6491 38.4022 32.5702C37.8786 31.447 37.88 30.2502 37.881 29.3002L37.8811 29.2472C37.8817 28.6357 37.8794 28.1472 37.7954 27.7318C37.7174 27.3462 37.5791 27.0813 37.3417 26.8834L37.329 26.874L31.285 34.2876C32.2351 35.5388 32.5134 36.7744 32.74 37.7804C32.8042 38.0655 32.8643 38.3321 32.9343 38.5754C33.0985 39.1462 33.3189 39.6566 33.7408 40.1525C34.1352 40.616 34.7348 41.1006 35.7026 41.598ZM41.2235 20.2305L40.5933 21.9998C40.5694 22.0669 40.6501 22.1222 40.7041 22.0756L42.7021 20.8762C42.8273 20.7682 42.9322 20.6386 43.0118 20.4936L43.7865 18.2631C43.8208 18.2006 43.7498 18.1331 43.6891 18.1706L42.0916 19.1569C41.6886 19.4057 41.3825 19.7844 41.2235 20.2305Z" fill="#1D2433"/>
    <path fill-rule="evenodd" clip-rule="evenodd" d="M9.49435 23.3164L6.56601 21.4227C6.30293 21.2526 6.10631 21.0014 6.00768 20.7094L4.71834 16.8906C4.70532 16.852 4.70665 16.8148 4.71815 16.7822C4.72963 16.7496 4.75125 16.7215 4.77882 16.701C4.83409 16.66 4.91332 16.6496 4.9829 16.6946L8.42359 18.9196C8.68667 19.0897 8.88329 19.341 8.98185 19.6329L10.1078 22.9679L12.4853 25.9201L18.9845 33.8918C19.0821 34.0115 19.1122 34.1705 19.1032 34.3246C19.0957 34.4529 19.0586 34.5811 18.9804 34.683C18.1171 35.8093 17.8787 36.8598 17.6528 37.855C17.2867 39.4677 16.9536 40.9353 14.0482 42.3446C13.8947 42.4191 13.7039 42.3733 13.6038 42.2377C12.8827 41.2612 10.0141 37.4839 7.34534 35.4692C7.10999 35.2915 7.17356 34.9129 7.45323 34.8131C11.1233 33.5033 11.1212 31.2108 11.1193 29.2463C11.1181 28.0599 11.1176 26.9929 11.9255 26.3344L9.49435 23.3164ZM8.20918 35.265C10.6482 37.255 13.1147 40.4255 13.9922 41.5965C14.96 41.0991 15.5596 40.6145 15.954 40.151C16.376 39.6551 16.5963 39.1447 16.7605 38.5739C16.8305 38.3305 16.8906 38.0639 16.9548 37.7789C17.1814 36.7728 17.4597 35.5371 18.4098 34.2859L12.3658 26.8725L12.3531 26.8819C12.1157 27.0797 11.9774 27.3447 11.8994 27.7303C11.8154 28.1457 11.8131 28.6342 11.8137 29.2457L11.8138 29.2987C11.8149 30.2487 11.8162 31.4455 11.2927 32.5687C10.7897 33.6476 9.84883 34.5777 8.20918 35.265ZM8.47195 20.2305L9.10219 21.9998C9.12612 22.0669 9.04538 22.1222 8.9914 22.0756L7.0012 20.8788C6.876 20.7707 6.7711 20.6411 6.69145 20.4962L5.90903 18.2631C5.87466 18.2006 5.94565 18.1331 6.00637 18.1706L7.60388 19.1569C8.00685 19.4057 8.31303 19.7844 8.47195 20.2305Z" fill="#1D2433"/>
    <path d="M59.4 39.5V24.5H63.52V36.2L62.42 35.34L70.92 24.5H75.3L63.14 39.5H59.4ZM66.56 32.34L69.6 29.82L75.5 39.5H70.8L66.56 32.34ZM85.6223 24.5C86.8757 24.5 87.9557 24.7133 88.8623 25.14C89.7823 25.5667 90.4823 26.1733 90.9623 26.96C91.4423 27.7333 91.6823 28.64 91.6823 29.68C91.6823 30.7067 91.4423 31.6133 90.9623 32.4C90.4823 33.1733 89.7823 33.7733 88.8623 34.2C87.9557 34.6267 86.8757 34.84 85.6223 34.84H79.1223V31.52H85.3623C86.029 31.52 86.549 31.36 86.9223 31.04C87.2957 30.7067 87.4823 30.2533 87.4823 29.68C87.4823 29.0933 87.2957 28.64 86.9223 28.32C86.549 27.9867 86.029 27.82 85.3623 27.82H79.4823L81.3423 25.9V39.5H77.2023V24.5H85.6223ZM106.653 30.5V33.5H95.6728V30.5H106.653ZM98.4928 32L97.5128 38.02L95.8328 36.14H107.313V39.5H93.3728L94.5128 32L93.3728 24.5H107.213V27.86H95.8328L97.5128 25.98L98.4928 32ZM109.033 42.52V35.84H112.273L113.593 35.88H123.993L125.033 35.84H129.393V42.52H125.513V39.5H112.913V42.52H109.033ZM112.153 24.5H126.813V38.34H122.653V26.24L124.533 28.12H114.353L116.073 26.74C116.18 27.3533 116.24 27.9467 116.253 28.52C116.28 29.0933 116.293 29.64 116.293 30.16C116.293 31.72 116.153 33.0333 115.873 34.1C115.606 35.1667 115.2 35.9733 114.653 36.52C114.12 37.0667 113.446 37.34 112.633 37.34L110.893 35.9C111.426 35.2733 111.82 34.42 112.073 33.34C112.326 32.2467 112.453 30.9 112.453 29.3C112.453 28.5667 112.426 27.8 112.373 27C112.32 26.2 112.246 25.3667 112.153 24.5ZM131.781 39.5V24.5H135.861V37.32L134.721 37.06L143.221 24.5H148.641V39.5H144.541V26.44L145.701 26.7L137.041 39.5H131.781ZM156.549 26.32H160.709V39.5H156.549V26.32ZM150.829 24.5H166.429V28.18H150.829V24.5ZM176.251 39.82C174.478 39.82 172.918 39.4933 171.571 38.84C170.238 38.1867 169.198 37.2733 168.451 36.1C167.718 34.9267 167.351 33.56 167.351 32C167.351 30.44 167.718 29.0733 168.451 27.9C169.198 26.7267 170.238 25.8133 171.571 25.16C172.918 24.5067 174.478 24.18 176.251 24.18C178.038 24.18 179.598 24.5067 180.931 25.16C182.264 25.8133 183.304 26.7267 184.051 27.9C184.798 29.0733 185.171 30.44 185.171 32C185.171 33.56 184.798 34.9267 184.051 36.1C183.304 37.2733 182.264 38.1867 180.931 38.84C179.598 39.4933 178.038 39.82 176.251 39.82ZM176.251 36.12C177.224 36.12 178.064 35.9533 178.771 35.62C179.478 35.2867 180.018 34.8133 180.391 34.2C180.778 33.5867 180.971 32.8533 180.971 32C180.971 31.1467 180.778 30.4133 180.391 29.8C180.018 29.1867 179.478 28.7133 178.771 28.38C178.064 28.0467 177.224 27.88 176.251 27.88C175.291 27.88 174.458 28.0467 173.751 28.38C173.044 28.7133 172.498 29.1867 172.111 29.8C171.724 30.4133 171.531 31.1467 171.531 32C171.531 32.8533 171.724 33.5867 172.111 34.2C172.498 34.8133 173.044 35.2867 173.751 35.62C174.458 35.9533 175.291 36.12 176.251 36.12ZM196.128 24.5C197.381 24.5 198.461 24.7133 199.368 25.14C200.288 25.5667 200.988 26.1733 201.468 26.96C201.948 27.7333 202.188 28.64 202.188 29.68C202.188 30.7067 201.948 31.6133 201.468 32.4C200.988 33.1733 200.288 33.7733 199.368 34.2C198.461 34.6267 197.381 34.84 196.128 34.84H189.628V31.52H195.868C196.534 31.52 197.054 31.36 197.428 31.04C197.801 30.7067 197.988 30.2533 197.988 29.68C197.988 29.0933 197.801 28.64 197.428 28.32C197.054 27.9867 196.534 27.82 195.868 27.82H189.988L191.848 25.9V39.5H187.708V24.5H196.128Z" fill="#1D2433"/>
</svg>