<svg width="16" height="16" viewBox="0 0 16 16" fill="none" xmlns="http://www.w3.org/2000/svg">
<g clip-path="url(#clip0_2102_16290)">
<path d="M5.33333 5.3335V3.46683C5.33333 2.72009 5.33333 2.34672 5.47865 2.06151C5.60648 1.81063 5.81046 1.60665 6.06134 1.47882C6.34656 1.3335 6.71992 1.3335 7.46666 1.3335H12.5333C13.2801 1.3335 13.6534 1.3335 13.9386 1.47882C14.1895 1.60665 14.3935 1.81063 14.5213 2.06151C14.6667 2.34672 14.6667 2.72009 14.6667 3.46683V8.5335C14.6667 9.28023 14.6667 9.6536 14.5213 9.93882C14.3935 10.1897 14.1895 10.3937 13.9386 10.5215C13.6534 10.6668 13.2801 10.6668 12.5333 10.6668H10.6667M3.46666 14.6668H8.53333C9.28007 14.6668 9.65343 14.6668 9.93865 14.5215C10.1895 14.3937 10.3935 14.1897 10.5213 13.9388C10.6667 13.6536 10.6667 13.2802 10.6667 12.5335V7.46683C10.6667 6.72009 10.6667 6.34672 10.5213 6.06151C10.3935 5.81063 10.1895 5.60665 9.93865 5.47882C9.65343 5.3335 9.28007 5.3335 8.53333 5.3335H3.46666C2.71992 5.3335 2.34656 5.3335 2.06134 5.47882C1.81046 5.60665 1.60648 5.81063 1.47865 6.06151C1.33333 6.34672 1.33333 6.72009 1.33333 7.46683V12.5335C1.33333 13.2802 1.33333 13.6536 1.47865 13.9388C1.60648 14.1897 1.81046 14.3937 2.06134 14.5215C2.34656 14.6668 2.71992 14.6668 3.46666 14.6668Z" stroke="#191C30" stroke-opacity="0.9" stroke-width="1.5" stroke-linecap="round" stroke-linejoin="round"/>
</g>
<defs>
<clipPath id="clip0_2102_16290">
<rect width="16" height="16" fill="white"/>
</clipPath>
</defs>
</svg>
