<svg width="28" height="28" viewBox="0 0 28 28" fill="none" xmlns="http://www.w3.org/2000/svg">
<path fill-rule="evenodd" clip-rule="evenodd" d="M1.16602 13.9998C1.16602 6.91201 6.91152 1.1665 13.9993 1.1665C21.0872 1.1665 26.8327 6.91201 26.8327 13.9998C26.8327 21.0877 21.0872 26.8332 13.9993 26.8332C6.91152 26.8332 1.16602 21.0877 1.16602 13.9998ZM13.9993 3.49984C8.20018 3.49984 3.49935 8.20067 3.49935 13.9998C3.49935 19.799 8.20018 24.4998 13.9993 24.4998C19.7985 24.4998 24.4994 19.799 24.4994 13.9998C24.4994 8.20067 19.7985 3.49984 13.9993 3.49984ZM12.821 9.33317C12.821 8.68884 13.3434 8.1665 13.9877 8.1665H13.9993C14.6437 8.1665 15.166 8.68884 15.166 9.33317C15.166 9.9775 14.6437 10.4998 13.9993 10.4998H13.9877C13.3434 10.4998 12.821 9.9775 12.821 9.33317ZM13.9993 12.8332C14.6437 12.8332 15.166 13.3555 15.166 13.9998V18.6665C15.166 19.3108 14.6437 19.8332 13.9993 19.8332C13.355 19.8332 12.8327 19.3108 12.8327 18.6665V13.9998C12.8327 13.3555 13.355 12.8332 13.9993 12.8332Z" fill="#FFC700"/>
</svg>
