<svg width="81" height="80" viewBox="0 0 81 80" fill="none" xmlns="http://www.w3.org/2000/svg">
<path opacity="0.12" d="M40.5001 73.3334C58.9096 73.3334 73.8334 58.4096 73.8334 40.0001C73.8334 21.5906 58.9096 6.66675 40.5001 6.66675C22.0906 6.66675 7.16675 21.5906 7.16675 40.0001C7.16675 58.4096 22.0906 73.3334 40.5001 73.3334Z" fill="#3AA981"/>
<path d="M25.5001 40.0001L35.5001 50.0001L55.5001 30.0001M73.8334 40.0001C73.8334 58.4096 58.9096 73.3334 40.5001 73.3334C22.0906 73.3334 7.16675 58.4096 7.16675 40.0001C7.16675 21.5906 22.0906 6.66675 40.5001 6.66675C58.9096 6.66675 73.8334 21.5906 73.8334 40.0001Z" stroke="#3AA981" stroke-width="2" stroke-linecap="round" stroke-linejoin="round"/>
</svg>
