<svg width="24" height="24" viewBox="0 0 24 24" fill="none" xmlns="http://www.w3.org/2000/svg">
<path opacity="0.12" d="M8.99902 12.0002C8.99902 13.6571 10.3422 15.0002 11.999 15.0002C12.8275 15.0002 13.5775 14.6644 14.1203 14.1215L9.8777 9.87891C9.33481 10.4218 8.99902 11.1718 8.99902 12.0002Z" fill="black"/>
<path d="M10.742 5.09232C11.1484 5.03223 11.5676 5 11.9994 5C17.1044 5 20.4543 9.50484 21.5797 11.2868C21.7159 11.5025 21.784 11.6103 21.8222 11.7767C21.8508 11.9016 21.8508 12.0987 21.8221 12.2236C21.784 12.3899 21.7154 12.4985 21.5782 12.7156C21.2784 13.1901 20.8212 13.8571 20.2155 14.5805M6.72335 6.71504C4.56127 8.1817 3.09347 10.2194 2.42013 11.2853C2.28331 11.5019 2.2149 11.6102 2.17676 11.7765C2.14812 11.9014 2.14811 12.0984 2.17674 12.2234C2.21485 12.3897 2.28295 12.4975 2.41916 12.7132C3.54456 14.4952 6.89444 19 11.9994 19C14.0578 19 15.8309 18.2676 17.2878 17.2766M2.99944 3L20.9994 21M9.87812 9.87868C9.33523 10.4216 8.99944 11.1716 8.99944 12C8.99944 13.6569 10.3426 15 11.9994 15C12.8279 15 13.5779 14.6642 14.1208 14.1213" stroke="#1B1F3B" stroke-opacity="0.4" stroke-width="2" stroke-linecap="round" stroke-linejoin="round"/>
</svg>
